<?xml version="1.0" encoding="UTF-8" standalone="yes"?>
<!DOCTYPE svg PUBLIC "-//W3C//DTD SVG 1.1//EN" "http://www.w3.org/Graphics/SVG/1.1/DTD/svg11.dtd">

<svg width="379" height="174" viewBox="0 0 379 174" xmlns="http://www.w3.org/2000/svg" xmlns:xlink="http://www.w3.org/1999/xlink" version="1.1" baseProfile="full">
    <g transform="scale(1,-1) translate(0,-174)">
        <path d="M 127.872700 96.631739 Q 128.585491 98.199880 127.872700 99.625462 Q 125.021536 105.898024 116.325484 109.034305 Q 109.482689 111.742911 101.356870 111.742911 Q 87.671280 111.742911 76.979413 107.893839 Q 44.048462 121.864546 29.792639 121.864546 Q 1.993784 121.864546 1.993784 88.078245 Q 1.993784 83.231266 3.775762 79.097077 Q 5.557740 74.962888 8.622742 71.684049 Q 11.687744 68.405210 15.893212 66.266837 Q 20.098679 64.128463 25.088217 63.415672 Q 18.673097 49.730082 18.673097 36.472167 Q 18.673097 24.639834 23.520077 16.656573 Q 25.515892 13.235175 28.580894 10.384011 Q 31.645896 7.532846 35.352410 5.465752 Q 39.058924 3.398658 43.121833 2.329471 Q 47.184743 1.260284 51.318931 1.260284 Q 74.698481 1.260284 94.941749 29.201697 Q 95.654540 30.342163 95.654540 30.912396 Q 95.654540 32.195420 94.371516 32.195420 Q 93.801284 32.195420 92.803376 30.912396 Q 80.400810 16.514015 79.117786 15.516107 Q 72.560107 9.528662 65.432196 6.677497 Q 58.304285 3.826332 50.748698 3.826332 Q 39.629157 3.826332 33.356595 11.239360 Q 27.654265 17.939597 27.654265 29.486814 Q 27.654265 46.166126 36.777992 63.415672 Q 56.308469 65.981720 58.019168 81.663125 Q 49.750791 69.403118 39.201482 67.692419 Q 53.884979 92.354992 77.407087 103.617092 Q 103.780360 91.071968 117.038275 91.071968 Q 125.734327 91.071968 127.872700 96.631739 Z M 73.130340 106.468257 Q 61.725682 101.621277 50.035907 92.497551 Q 34.354502 80.665218 27.369149 68.120093 Q 18.673097 69.973350 13.541001 74.820330 Q 7.553555 80.380101 7.553555 88.933595 Q 7.553555 118.585706 29.792639 118.585706 Q 39.201482 118.585706 52.601955 113.738727 Z M 124.878977 98.770113 Q 124.878977 93.638016 121.029905 94.065691 Q 102.497335 94.208249 82.111509 105.612908 Q 87.813838 108.036398 92.874655 109.105584 Q 97.935472 110.174771 102.212219 109.604538 Q 121.457580 108.036398 124.878977 100.053137 Z M 101.784544 33.335886 L 101.499428 32.623095 L 104.778267 35.901934 Q 106.061291 43.172403 108.627339 46.166126 L 109.482689 47.021476 L 109.625247 46.736359 Q 110.765713 46.308685 111.834899 45.809731 Q 112.904086 45.310777 113.901994 45.025660 Q 118.748974 44.740544 122.883162 45.453335 L 114.757343 34.618910 L 110.908271 26.920765 Q 109.055014 23.214251 109.055014 20.648203 Q 109.055014 9.386103 118.606415 9.386103 Q 124.593861 9.386103 132.292005 17.939597 Q 138.849684 25.210067 142.413639 32.052862 Q 142.841314 32.480536 142.841314 32.623095 Q 142.841314 33.906119 141.558290 33.906119 Q 140.845499 33.906119 140.275266 33.335886 Q 128.157817 14.518200 121.172463 12.379826 Q 116.040367 12.379826 116.040367 15.943782 Q 116.040367 17.369364 116.753158 19.792854 L 119.319206 27.063324 Q 123.738512 39.608448 139.562475 55.574969 L 137.709218 58.283576 L 133.004796 54.862178 Q 132.719680 54.719620 132.577122 54.434504 Q 132.434563 54.149387 132.149447 53.864271 Q 129.583399 52.296130 126.233281 51.654618 Q 122.883162 51.013106 118.891532 51.013106 Q 120.602230 52.866363 121.528859 54.291945 Q 122.455487 55.717528 122.455487 57.285668 Q 122.455487 59.281483 120.673510 61.063461 Q 118.891532 62.845439 116.895717 62.845439 Q 115.612692 62.845439 114.187110 61.562415 Q 111.335946 59.138925 109.696526 57.285668 Q 108.057106 55.432411 107.486873 54.291945 Q 106.631524 50.870548 108.199665 48.447058 L 105.205942 45.453335 Q 101.784544 42.459612 100.929195 32.480536 Z M 114.187110 51.868455 Q 113.474319 52.581247 113.474319 53.864271 Q 113.474319 54.719620 114.329668 56.430319 Q 115.185018 56.430319 115.897809 55.717528 Q 116.182925 54.006829 114.187110 51.868455 Z M 130.866423 47.449150 L 131.721772 48.732174 Q 131.721772 47.591709 130.866423 47.449150 Z M 120.174556 12.094710 Q 120.031998 11.952151 119.604323 11.952151 Q 119.746881 11.952151 119.889439 12.023431 Q 120.031998 12.094710 120.174556 12.094710 Z M 179.763895 33.050769 Q 179.763895 34.618910 178.195755 34.618910 Q 178.195755 34.618910 173.919008 28.774022 Q 162.799466 12.094710 152.962948 12.094710 Q 147.260619 12.094710 147.260619 19.365179 Q 147.260619 26.493091 149.398993 28.631464 Q 153.390623 31.625187 156.740741 33.834840 Q 160.090860 36.044492 162.656908 37.612633 Q 175.629707 44.883102 175.629707 51.725897 Q 175.629707 58.568692 168.359237 58.568692 Q 162.656908 58.568692 155.101322 52.723805 Q 139.134800 40.321239 139.134800 25.637741 Q 139.134800 19.222621 142.841314 14.518200 Q 146.547828 9.813778 152.962948 9.813778 Q 165.793189 9.813778 179.336221 32.052862 Q 179.478779 32.337978 179.621337 32.623095 Q 179.763895 32.908211 179.763895 33.050769 Z M 168.644354 46.593801 Q 162.942024 41.604263 158.451440 38.182865 Q 153.960856 34.761468 150.682017 32.623095 Q 152.250157 37.897749 158.095045 46.308685 Q 164.937840 56.430319 168.786912 56.430319 Q 169.357145 56.430319 169.927378 56.002644 Q 170.497611 55.574969 170.925285 55.574969 Q 172.065751 53.151479 172.208309 53.579154 Q 172.065751 51.155664 168.644354 46.593801 Z M 230.372067 32.195420 Q 231.369974 33.335886 230.372067 34.333793 Q 229.374159 35.331701 228.376251 34.191235 Q 214.690661 12.522384 208.560658 12.522384 Q 206.992517 12.522384 206.422284 14.090525 Q 205.281818 16.941689 208.132983 24.354717 Q 210.556473 30.912396 214.904499 39.038215 Q 219.252525 47.164034 225.667645 57.000552 Q 218.824850 57.713343 215.118336 54.434504 L 214.262987 53.579154 Q 212.409730 60.849624 204.711585 60.849624 Q 196.300650 60.849624 187.747156 52.296130 Q 174.346683 38.895657 174.346683 23.927043 Q 174.346683 11.096802 184.753433 11.096802 Q 192.023903 11.096802 199.579489 17.939597 Q 200.434839 9.956336 208.703216 9.956336 Q 215.118336 9.956336 221.105782 18.937505 Z M 207.420192 51.298223 Q 207.420192 44.740544 203.571120 35.189143 Q 195.587859 14.660758 185.893899 14.660758 Q 180.904361 14.660758 180.904361 21.788669 Q 180.904361 34.904026 191.881345 49.302407 Q 197.868790 57.428226 203.428561 57.428226 Q 207.420192 57.428226 207.420192 51.298223 Z M 368.510990 111.742911 Q 367.227966 135.550136 337.005622 135.550136 Q 286.397450 135.550136 244.200215 60.421949 Q 241.491608 60.707066 239.709630 60.564507 Q 237.927653 60.421949 236.787187 60.279391 Q 227.378344 58.996367 227.378344 51.298223 Q 227.378344 48.304500 229.516717 46.593801 Q 232.225323 54.434504 241.063934 54.434504 Q 228.233693 29.771930 228.233693 20.077970 Q 228.233693 12.094710 233.936022 10.241453 Q 234.933930 9.671220 236.502070 9.528662 Q 238.070211 9.386103 240.351143 9.386103 Q 245.340681 9.386103 252.183476 14.945874 Q 259.881620 20.933320 266.296740 31.625187 Q 266.439298 32.052862 266.581857 32.551815 Q 266.724415 33.050769 266.724415 33.335886 Q 266.724415 34.333793 265.441391 34.333793 Q 264.871158 34.333793 264.158367 33.763560 Q 261.307202 28.774022 258.028363 24.639834 Q 254.749524 20.505645 251.043010 17.511922 Q 244.770448 12.094710 240.208584 12.094710 Q 234.648813 12.094710 234.648813 16.656573 Q 234.648813 19.365179 234.933930 21.574832 Q 235.219046 23.784484 235.646721 25.780300 Q 240.636259 35.474259 244.342773 42.459612 Q 248.049287 49.444966 250.615335 54.006829 L 253.894174 53.864271 Q 254.892082 53.579154 255.462315 53.579154 Q 256.175106 53.579154 256.460222 53.579154 Q 270.288371 52.866363 270.288371 62.132648 Q 270.288371 65.126371 268.007439 68.120093 Q 266.296740 60.992182 259.596503 59.994274 Q 258.028363 59.851716 256.602781 59.709158 Q 255.177198 59.566600 253.894174 59.851716 Q 266.439298 81.378009 280.124888 98.770113 Q 293.382804 115.306867 307.995022 123.717803 Q 322.607240 132.128738 339.001437 132.271296 Q 349.408187 132.556413 356.037145 127.210479 Q 362.666103 121.864546 363.093777 111.315237 Q 363.378894 106.325699 361.311800 102.334068 Q 359.244705 98.342438 355.253075 95.063599 Q 351.546561 92.354992 347.198535 90.858131 Q 342.850509 89.361270 337.718413 89.076153 Q 323.747706 88.363362 314.338863 100.195695 Q 314.053747 100.765928 313.626072 101.407440 Q 313.198397 102.048952 312.485606 103.189418 Q 314.481421 86.082430 337.718413 84.799406 Q 350.548653 83.944057 359.529822 91.214527 Q 369.366339 98.912671 368.510990 111.742911 Z M 293.382804 33.050769 Q 293.382804 34.191235 292.099780 34.191235 Q 291.529547 34.191235 290.816755 33.478444 Q 277.131166 12.094710 269.433021 12.094710 Q 268.149997 12.094710 266.866973 13.805408 Q 265.583949 16.941689 268.435114 24.354717 Q 272.996977 37.327516 283.118611 53.151479 Q 282.548378 55.289853 278.699306 57.855901 Q 274.992792 60.421949 272.711860 60.421949 Q 271.713953 60.421949 271.999069 59.994274 Q 272.569302 58.283576 272.711860 56.715435 Q 272.854419 55.147295 272.854419 53.579154 Q 272.854419 51.155664 272.070348 48.803454 Q 271.286278 46.451243 269.718138 44.455428 Q 266.866973 40.321239 265.298833 37.969028 Q 263.730692 35.616817 263.303017 34.761468 Q 259.453945 26.778207 259.453945 21.075878 Q 259.453945 9.813778 269.290463 9.813778 Q 274.992792 9.813778 282.976053 18.367272 Q 286.254892 21.646111 288.607103 25.138788 Q 290.959314 28.631464 292.812571 32.195420 Q 293.382804 32.623095 293.382804 33.050769 Z M 300.510715 76.673587 Q 296.804201 77.101262 293.810478 77.101262 Q 287.110242 77.101262 282.263262 75.675680 Q 281.550471 75.248005 280.837679 73.964981 Q 280.267447 72.967073 280.410005 72.040445 Q 280.552563 71.113816 280.980238 70.258467 Q 283.261169 65.839162 287.823033 65.839162 Q 290.816755 65.839162 290.816755 68.832885 Q 290.816755 68.975443 289.890127 70.187188 Q 288.963498 71.398933 288.963498 72.254282 Q 288.963498 75.105447 300.510715 76.673587 Z M 346.414465 53.151479 L 344.133533 53.864271 L 341.995160 51.725897 Q 339.286553 49.302407 334.867248 48.019383 Q 334.154457 47.876825 332.158642 47.662988 Q 330.162827 47.449150 326.741429 47.021476 Q 329.592594 52.581247 329.592594 55.147295 Q 329.592594 58.568692 325.743521 58.568692 Q 321.751891 58.568692 319.898634 57.428226 Q 317.760261 56.572877 316.334678 55.147295 L 313.911188 52.723805 Q 312.485606 51.298223 312.343048 49.801361 Q 312.200490 48.304500 313.768630 46.736359 Q 315.764445 44.740544 317.190028 43.742636 Q 318.615610 42.744729 319.043285 42.459612 Q 314.196305 31.054954 304.074671 19.650296 Q 298.087225 12.522384 292.812571 12.522384 Q 289.818848 12.522384 289.818848 16.371457 Q 289.818848 22.358902 296.376526 40.606355 Q 299.370249 48.447058 305.785369 54.862178 Q 306.355602 55.432411 306.426881 55.574969 Q 306.498161 55.717528 306.213044 56.002644 Q 306.213044 56.002644 305.357695 55.860086 Q 304.502345 55.717528 303.504438 55.503690 Q 302.506530 55.289853 301.579902 55.076016 Q 300.653273 54.862178 300.510715 54.862178 Q 294.523269 52.153572 291.529547 46.736359 Q 282.548378 29.771930 282.548378 22.358902 Q 282.548378 9.956336 292.955129 9.956336 Q 299.940482 9.956336 306.640719 17.511922 Q 312.343048 23.784484 316.334678 29.130418 Q 320.326309 34.476352 322.749799 38.895657 Q 323.462590 40.321239 323.961544 41.247867 Q 324.460497 42.174496 324.603056 42.459612 Q 339.429111 46.166126 342.137718 48.874733 Z M 321.039100 49.730082 Q 321.039100 49.017291 320.896542 48.304500 Q 320.753983 47.591709 320.611425 46.736359 Q 318.330494 47.306592 316.334678 49.159849 Q 315.621887 49.872640 315.621887 50.585431 Q 315.621887 51.440781 316.334678 52.581247 Q 317.332586 53.294038 318.045377 53.864271 Q 318.758168 54.434504 319.328401 54.862178 L 320.183751 53.008921 Q 321.039100 51.298223 321.039100 49.730082 Z M 375.496343 33.050769 Q 375.496343 34.618910 373.928203 34.618910 Q 373.928203 34.618910 369.651456 28.774022 Q 358.531914 12.094710 348.695396 12.094710 Q 342.993067 12.094710 342.993067 19.365179 Q 342.993067 26.493091 345.131441 28.631464 Q 349.123071 31.625187 352.473189 33.834840 Q 355.823308 36.044492 358.389356 37.612633 Q 371.362155 44.883102 371.362155 51.725897 Q 371.362155 58.568692 364.091685 58.568692 Q 358.389356 58.568692 350.833770 52.723805 Q 334.867248 40.321239 334.867248 25.637741 Q 334.867248 19.222621 338.573762 14.518200 Q 342.280276 9.813778 348.695396 9.813778 Q 361.525637 9.813778 375.068669 32.052862 Q 375.211227 32.337978 375.353785 32.623095 Q 375.496343 32.908211 375.496343 33.050769 Z M 364.376801 46.593801 Q 358.674472 41.604263 354.183888 38.182865 Q 349.693304 34.761468 346.414465 32.623095 Q 347.982605 37.897749 353.827493 46.308685 Q 360.670287 56.430319 364.519360 56.430319 Q 365.089593 56.430319 365.659825 56.002644 Q 366.230058 55.574969 366.657733 55.574969 Q 367.798199 53.151479 367.940757 53.579154 Q 367.798199 51.155664 364.376801 46.593801 Z" transform="scale(1.000000,1.000000) translate(-1.000000,18.000000)" fill="#000000" opacity="1.000000"></path>
    </g>
</svg>